<svg width="40" height="40" viewBox="0 0 40 40" fill="none" xmlns="http://www.w3.org/2000/svg">
<path d="M7.20005 39.2H32.8V36H39.2001V26.4C39.2001 21.7328 36.1096 17.7752 31.868 16.4632C33.868 15.1824 35.2001 12.9456 35.2001 10.4C35.2001 6.4304 31.9704 3.2 28 3.2C27.316 3.2 26.6377 3.3024 25.9753 3.4984C24.5089 1.848 22.3768 0.800003 20 0.800003C17.6232 0.800003 15.4912 1.848 14.0248 3.4984C13.3624 3.3024 12.684 3.2 12 3.2C8.02965 3.2 4.80005 6.4304 4.80005 10.4C4.80005 12.9456 6.13205 15.1824 8.13205 16.4632C3.89045 17.7752 0.800049 21.7328 0.800049 26.4V36H7.20005V39.2ZM31.2 37.6H8.80005V36V25.6C8.80005 25.3328 8.81685 25.0688 8.84005 24.8072C8.84805 24.7216 8.85845 24.6368 8.86805 24.5512C8.88965 24.3704 8.91765 24.192 8.95045 24.0152C8.96725 23.9256 8.98085 23.8352 9.00005 23.7464C9.04965 23.5168 9.10805 23.2912 9.17445 23.068C9.20805 22.9576 9.24805 22.8504 9.28565 22.7416C9.32885 22.6152 9.37445 22.4904 9.42325 22.3664C9.47045 22.2472 9.52005 22.1288 9.57205 22.012C9.62325 21.8976 9.67925 21.7856 9.73525 21.6736C9.81685 21.5104 9.90325 21.3504 9.99445 21.1928C10.0744 21.056 10.1544 20.9192 10.2408 20.7872C10.308 20.6848 10.38 20.5856 10.4512 20.4856C10.5264 20.38 10.604 20.276 10.684 20.1744C10.7576 20.0808 10.8312 19.988 10.9088 19.8976C11.0096 19.78 11.1144 19.6664 11.2208 19.5544C11.3192 19.4504 11.42 19.348 11.5232 19.2488C11.6504 19.1272 11.7792 19.008 11.9136 18.8936C12.0016 18.8192 12.0928 18.748 12.184 18.6768C12.2888 18.5952 12.3944 18.5152 12.5032 18.4384C12.604 18.3664 12.7048 18.2952 12.8096 18.2272C12.9152 18.1584 13.024 18.0952 13.132 18.0312C13.3361 17.9104 13.5456 17.7976 13.7608 17.6928C13.8688 17.64 13.9752 17.5848 14.0856 17.536L14.2144 17.4784C15.2576 17.0424 16.4008 16.8 17.6 16.8H22.4C23.5992 16.8 24.7424 17.0424 25.7848 17.4792L25.9136 17.5368C26.024 17.5848 26.1304 17.6408 26.2384 17.6936C26.4536 17.7984 26.6632 17.9112 26.8672 18.032C26.976 18.096 27.0848 18.1592 27.1896 18.228C27.2936 18.296 27.3952 18.3672 27.496 18.4392C27.604 18.516 27.7104 18.596 27.8153 18.6776C27.9065 18.7488 27.9976 18.82 28.0856 18.8944C28.22 19.008 28.3489 19.128 28.476 19.2496C28.58 19.3488 28.68 19.4512 28.7784 19.5552C28.8848 19.6672 28.9904 19.7808 29.0904 19.8984C29.1672 19.9888 29.2416 20.0816 29.3153 20.1752C29.3953 20.2768 29.4729 20.3808 29.548 20.4864C29.6193 20.5864 29.6921 20.6848 29.7585 20.788C29.8449 20.92 29.9256 21.0568 30.0049 21.1936C30.0961 21.3512 30.1825 21.512 30.2641 21.6744C30.3201 21.7864 30.376 21.8984 30.4272 22.0128C30.48 22.1296 30.5289 22.248 30.576 22.3672C30.6248 22.4904 30.6696 22.616 30.7136 22.7424C30.7512 22.8512 30.7912 22.9592 30.8248 23.0688C30.892 23.2912 30.9504 23.5176 30.9993 23.7472C31.0184 23.836 31.0329 23.9264 31.0488 24.016C31.0809 24.1928 31.1096 24.372 31.1313 24.552C31.1417 24.6368 31.1521 24.7224 31.1593 24.808C31.1833 25.0688 31.2 25.3328 31.2 25.6V36V37.6ZM37.6 26.4V34.4H32.8V25.6C32.8 25.22 32.7768 24.8456 32.7369 24.476C32.7273 24.3888 32.7089 24.304 32.6977 24.2176C32.6593 23.932 32.6145 23.648 32.5536 23.3704C32.5336 23.2792 32.5064 23.1912 32.484 23.1008C32.4168 22.8296 32.3424 22.5616 32.2544 22.2992C32.2248 22.2104 32.1905 22.124 32.1585 22.0368C32.0641 21.7784 31.9608 21.524 31.8472 21.276C31.8072 21.1888 31.7648 21.1024 31.7216 21.0168C31.6024 20.7744 31.4745 20.5384 31.3369 20.3072C31.2865 20.2224 31.236 20.1376 31.1824 20.0536C31.0385 19.8272 30.8857 19.608 30.7257 19.3936C30.6672 19.3152 30.6112 19.236 30.5504 19.1592C30.3752 18.9376 30.1888 18.7256 29.996 18.5192C29.9416 18.4608 29.8912 18.3992 29.8352 18.3424C29.5824 18.0832 29.3184 17.8352 29.04 17.604C33.7817 17.7312 37.6 21.628 37.6 26.4ZM26.9784 4.8968C27.316 4.8328 27.6568 4.8 28 4.8C31.0872 4.8 33.6 7.312 33.6 10.4C33.6 13.488 31.0872 16 28 16C26.9016 16 25.8448 15.68 24.9392 15.0848C24.9512 15.076 24.9608 15.0648 24.972 15.0552C25.6608 14.5072 26.2544 13.848 26.7313 13.1048C26.7465 13.0808 26.76 13.0568 26.7753 13.0328C26.9137 12.812 27.0408 12.5848 27.1576 12.3504C27.1768 12.312 27.1944 12.2736 27.2128 12.2352C27.3192 12.0136 27.4144 11.7864 27.5 11.5536C27.5176 11.5056 27.5361 11.4576 27.5529 11.4096C27.6305 11.1864 27.6968 10.9584 27.7544 10.7264C27.7689 10.6688 27.7857 10.612 27.7985 10.5544C27.8496 10.328 27.888 10.0976 27.9192 9.864C27.928 9.8024 27.9408 9.7416 27.9472 9.6792C27.9808 9.3912 28 9.0976 28 8.8C28 8.4832 27.9768 8.1728 27.9408 7.8656C27.9296 7.768 27.9112 7.672 27.896 7.5744C27.8624 7.36 27.8224 7.148 27.7728 6.9392C27.7488 6.8376 27.7232 6.7368 27.6952 6.6368C27.6304 6.4056 27.5545 6.1792 27.4697 5.9576C27.4457 5.896 27.4264 5.8328 27.4016 5.772C27.28 5.476 27.1417 5.1896 26.9865 4.912C26.9825 4.9064 26.9808 4.9016 26.9784 4.8968ZM24.9304 4.724L24.9792 4.7872C25.0184 4.836 25.0536 4.8872 25.0912 4.9368C25.4992 5.4736 25.8112 6.0584 26.0304 6.6752C26.0448 6.7152 26.0608 6.7544 26.0744 6.7952C26.1696 7.0824 26.2416 7.376 26.2952 7.6752C26.3064 7.7376 26.3152 7.8016 26.324 7.8648C26.3688 8.1728 26.4 8.484 26.4 8.8C26.4 9.0624 26.3801 9.3216 26.3481 9.5784C26.3409 9.6384 26.3297 9.6976 26.3209 9.7576C26.288 9.9696 26.2472 10.1792 26.1936 10.3848C26.1824 10.428 26.1721 10.472 26.16 10.5152C26.0152 11.0304 25.8088 11.5248 25.5432 11.9856C25.5385 11.9936 25.5336 12.0016 25.5288 12.0096C25.4 12.2312 25.256 12.4448 25.1008 12.6496C25.0864 12.668 25.0728 12.6872 25.0584 12.7064C24.7328 13.128 24.3536 13.5096 23.9272 13.8424C23.9024 13.8616 23.876 13.88 23.8512 13.8992C23.6536 14.0488 23.4472 14.188 23.2312 14.3152C23.1928 14.3376 23.1568 14.3624 23.1176 14.384L23.0264 14.4368C22.1241 14.9232 21.0944 15.2 20 15.2C18.9056 15.2 17.876 14.9232 16.9744 14.4368L16.8832 14.384C16.8448 14.3624 16.808 14.3376 16.7696 14.3152C16.5536 14.188 16.3472 14.0488 16.1496 13.8992C16.124 13.88 16.0984 13.8616 16.0736 13.8424C15.648 13.5096 15.2688 13.128 14.9424 12.7064C14.928 12.688 14.9144 12.6688 14.9 12.6496C14.7448 12.4448 14.6016 12.2312 14.472 12.0096C14.4672 12.0016 14.4624 11.9936 14.4576 11.9856C14.1912 11.524 13.9848 11.0296 13.84 10.5144C13.828 10.472 13.8176 10.428 13.8064 10.3856C13.7528 10.1792 13.712 9.9696 13.6792 9.7576C13.6705 9.6976 13.6592 9.6392 13.652 9.5784C13.62 9.3216 13.6 9.0624 13.6 8.8C13.6 8.484 13.6312 8.1728 13.676 7.8656C13.6856 7.8024 13.6936 7.7392 13.7048 7.676C13.7584 7.3776 13.8304 7.0832 13.9256 6.796C13.9392 6.7552 13.9552 6.716 13.9696 6.676C14.1888 6.0592 14.5008 5.4736 14.9088 4.9376C14.9464 4.888 14.9816 4.836 15.0208 4.788L15.0696 4.7248C16.2448 3.3056 18.0184 2.4 20 2.4C21.9816 2.4 23.7552 3.3056 24.9304 4.724ZM6.40005 10.4C6.40005 7.312 8.91285 4.8 12 4.8C12.3432 4.8 12.684 4.8328 13.0216 4.8968C13.0192 4.9016 13.0168 4.9072 13.0144 4.912C12.86 5.1888 12.7208 5.4752 12.5992 5.7712C12.5736 5.8328 12.5544 5.896 12.5304 5.9584C12.4456 6.18 12.3696 6.4064 12.3048 6.6368C12.2768 6.7368 12.2512 6.8376 12.2272 6.9392C12.1776 7.148 12.1376 7.36 12.104 7.5744C12.0888 7.6712 12.0712 7.7672 12.0592 7.8656C12.0232 8.1728 12 8.4832 12 8.8C12 9.0976 12.0192 9.3912 12.0512 9.68C12.0584 9.7424 12.0712 9.8024 12.0792 9.864C12.1104 10.0976 12.1496 10.3288 12.2 10.5552C12.2128 10.6128 12.2296 10.6688 12.244 10.7256C12.3016 10.9576 12.368 11.1864 12.4456 11.4104C12.4624 11.4592 12.4808 11.5064 12.4984 11.5552C12.584 11.7872 12.68 12.0144 12.7856 12.236C12.804 12.2744 12.8224 12.3136 12.8416 12.352C12.9584 12.5864 13.0856 12.8136 13.224 13.0344C13.2392 13.0584 13.2528 13.0824 13.268 13.1064C13.7448 13.8496 14.3392 14.508 15.0272 15.0568C15.0384 15.0664 15.0489 15.0768 15.0601 15.0864C14.1552 15.68 13.0984 16 12 16C8.91285 16 6.40005 13.488 6.40005 10.4ZM2.40005 34.4V26.4C2.40005 21.628 6.21845 17.7312 10.9608 17.6032C10.6824 17.8344 10.4184 18.0832 10.1656 18.3416C10.1096 18.3984 10.0592 18.46 10.0048 18.5184C9.81205 18.7248 9.62565 18.9368 9.44965 19.1592C9.38965 19.2352 9.33365 19.3144 9.27525 19.3928C9.11445 19.6072 8.96165 19.8264 8.81765 20.0536C8.76485 20.1376 8.71445 20.2216 8.66325 20.3072C8.52565 20.5384 8.39765 20.7744 8.27845 21.0168C8.23605 21.1032 8.19365 21.1888 8.15285 21.276C8.03845 21.524 7.93605 21.7784 7.84165 22.0368C7.80965 22.1248 7.77525 22.2104 7.74565 22.2992C7.65765 22.5624 7.58325 22.8304 7.51525 23.1024C7.49285 23.192 7.46645 23.28 7.44645 23.3704C7.38565 23.6488 7.34085 23.9328 7.30245 24.2192C7.29045 24.3056 7.27285 24.3896 7.26325 24.4768C7.22325 24.8456 7.20005 25.22 7.20005 25.6V34.4H2.40005Z" fill="#2A4599"/>
</svg>
