<svg width="38" height="38" viewBox="0 0 38 38" fill="none" xmlns="http://www.w3.org/2000/svg">
<path d="M1.77425 9.2812H18.0665V8.14747C18.0665 3.84237 21.5853 0.323151 25.8904 0.323151H36.2259C36.7416 0.323151 37.1594 0.741453 37.1594 1.25715V36.7428C37.1594 37.2585 36.7416 37.6764 36.2259 37.6764C24.7418 37.6764 13.2583 37.6764 1.77425 37.6764C1.25855 37.6764 0.840698 37.2585 0.840698 36.7428C0.840698 27.9001 0.840698 19.0574 0.840698 10.2147C0.840698 9.69905 1.25855 9.2812 1.77425 9.2812ZM24.0821 24.0946H31.1438C31.6595 24.0946 32.0778 24.5129 32.0778 25.0281V35.8088H35.2919V2.1907H25.8904C22.6162 2.1907 19.9336 4.87331 19.9336 8.14747C19.9336 17.3681 19.9336 26.5887 19.9336 35.8088H23.1481V25.0281C23.1481 24.5129 23.5664 24.0946 24.0821 24.0946ZM30.2103 25.9621H25.0156V35.8088H30.2103V25.9621ZM11.3207 11.1487V13.3282H18.0665V11.1487H11.3207ZM11.3207 15.1958V17.2043H18.0665V15.1958H11.3207ZM9.45315 17.2043V15.1958H2.70825V17.2043H9.45315ZM9.45315 13.3282V11.1487H2.70825V13.3282H9.45315ZM18.0665 19.0718H2.70825V35.8088H5.92182V25.4595C5.92182 24.9438 6.34012 24.5259 6.85582 24.5259H13.9185C14.4342 24.5259 14.8525 24.9438 14.8525 25.4595V35.8088H18.0665V19.0718ZM23.048 9.16675C21.82 9.16675 21.82 7.2992 23.048 7.2992H32.1779C33.4059 7.2992 33.4059 9.16675 32.1779 9.16675H23.048ZM23.048 21.4833C21.82 21.4833 21.82 19.6158 23.048 19.6158H32.1779C33.4059 19.6158 33.4059 21.4833 32.1779 21.4833H23.048ZM23.048 13.2726C21.82 13.2726 21.82 11.405 23.048 11.405H32.1779C33.4059 11.405 33.4059 13.2726 32.1779 13.2726H23.048ZM23.048 17.378C21.82 17.378 21.82 15.5104 23.048 15.5104H32.1779C33.4059 15.5104 33.4059 17.378 32.1779 17.378H23.048ZM12.9849 35.8088V26.3935H7.78937V35.8088H12.9849Z" fill="#696969"/>
</svg>
