<svg width="38" height="38" viewBox="0 0 38 38" fill="none" xmlns="http://www.w3.org/2000/svg">
<path d="M30.3186 0.148438H7.68188C6.20879 0.148438 5.01001 1.34722 5.01001 2.82031V35.1797C5.01001 36.6528 6.20879 37.8516 7.68188 37.8516H30.3186C31.7917 37.8516 32.9905 36.6528 32.9905 35.1797V2.82031C32.9905 1.34722 31.7917 0.148438 30.3186 0.148438ZM31.2092 35.1797C31.2092 35.6707 30.8096 36.0703 30.3186 36.0703H7.68188C7.19085 36.0703 6.79126 35.6707 6.79126 35.1797V2.82031C6.79126 2.32928 7.19085 1.92969 7.68188 1.92969H30.3186C30.8096 1.92969 31.2092 2.32928 31.2092 2.82031V35.1797Z" fill="#696969"/>
<path d="M10.168 6.38281H27.1641C27.6557 6.38281 28.0547 5.98441 28.0547 5.49219C28.0547 4.99997 27.6557 4.60156 27.1641 4.60156H10.168C9.67575 4.60156 9.27734 4.99997 9.27734 5.49219C9.27734 5.98441 9.67575 6.38281 10.168 6.38281Z" fill="#696969"/>
<path d="M10.168 11.7266H19.4453C19.9369 11.7266 20.3359 11.3282 20.3359 10.8359C20.3359 10.3437 19.9369 9.94531 19.4453 9.94531H10.168C9.67575 9.94531 9.27734 10.3437 9.27734 10.8359C9.27734 11.3282 9.67575 11.7266 10.168 11.7266Z" fill="#696969"/>
<path d="M10.168 17.0703H23.8984C24.3901 17.0703 24.7891 16.6719 24.7891 16.1797C24.7891 15.6875 24.3901 15.2891 23.8984 15.2891H10.168C9.67575 15.2891 9.27734 15.6875 9.27734 16.1797C9.27734 16.6719 9.67575 17.0703 10.168 17.0703Z" fill="#696969"/>
<path d="M17.9241 21.5234C17.9241 21.0318 17.5257 20.6328 17.0335 20.6328H10.168C9.67575 20.6328 9.27734 21.0318 9.27734 21.5234C9.27734 22.0151 9.67575 22.4141 10.168 22.4141H17.0335C17.5251 22.4141 17.9241 22.0151 17.9241 21.5234Z" fill="#696969"/>
<path d="M28.1342 29.9517L25.932 32.1801L23.6437 27.0602C23.6353 27.0423 23.6241 27.0263 23.6146 27.0091C23.5997 26.9806 23.5843 26.9515 23.5659 26.9248C23.5487 26.8981 23.5285 26.8749 23.5083 26.8512C23.4917 26.8316 23.475 26.8114 23.4566 26.7924C23.4293 26.7657 23.4002 26.7425 23.3699 26.7193C23.3575 26.7098 23.3474 26.6986 23.3337 26.6891C23.3296 26.6861 23.3248 26.6843 23.3207 26.6819C23.2898 26.6618 23.2577 26.6445 23.2245 26.6285C23.2037 26.6178 23.1841 26.6065 23.1627 26.5976C23.1348 26.5858 23.1051 26.5792 23.076 26.5709C23.0493 26.5626 23.0232 26.5537 22.9959 26.5483C22.968 26.543 22.9401 26.5424 22.9122 26.5394C22.8831 26.5365 22.854 26.5323 22.8255 26.5329C22.7982 26.5329 22.7709 26.5371 22.7441 26.54C22.7133 26.543 22.683 26.5448 22.6533 26.5513C22.6295 26.5561 22.6058 26.5644 22.582 26.5715C22.5488 26.5816 22.5161 26.5905 22.4841 26.6042C22.4781 26.6065 22.4722 26.6077 22.4669 26.6101C22.4496 26.6184 22.4348 26.6291 22.4182 26.638C22.3879 26.6534 22.3582 26.6695 22.3303 26.6885C22.3065 26.7045 22.2852 26.7235 22.2638 26.7419C22.2412 26.7603 22.2193 26.7781 22.1985 26.7995C22.1747 26.8238 22.1539 26.85 22.1332 26.8773C22.1213 26.8915 22.1076 26.904 22.0969 26.9194L19.2968 30.9973L18.6075 30.2902C18.6033 30.2854 18.5968 30.2842 18.5926 30.2795C18.5618 30.2498 18.5321 30.2189 18.4964 30.1928C18.4418 30.153 18.3836 30.1215 18.3237 30.0954C18.3142 30.0912 18.3047 30.0895 18.2952 30.0859C18.196 30.0473 18.0933 30.0242 17.9894 30.0224C17.9805 30.0224 17.9722 30.0242 17.9633 30.0242C17.8576 30.0247 17.7531 30.0426 17.6539 30.08C17.6456 30.0835 17.6385 30.0883 17.6302 30.0918C17.531 30.1322 17.4378 30.1904 17.357 30.2682C17.3541 30.2706 17.3505 30.2712 17.3475 30.2741C17.3422 30.2795 17.3404 30.2866 17.3351 30.2919C17.306 30.3222 17.2763 30.3507 17.2514 30.3852L15.6185 32.6117C15.3276 33.0083 15.4131 33.5653 15.8097 33.8568C15.9689 33.9726 16.1529 34.029 16.3358 34.029C16.6095 34.029 16.8803 33.9031 17.0542 33.665L18.0654 32.2863L18.7737 33.0137C18.7743 33.0143 18.7743 33.0143 18.7749 33.0149L18.7779 33.0184C18.7791 33.0196 18.7803 33.0196 18.7814 33.0208C18.8206 33.0606 18.864 33.098 18.9115 33.1312C18.9471 33.1556 18.9863 33.1675 19.0237 33.1859C19.0528 33.2001 19.0801 33.2167 19.1104 33.2274C19.2095 33.2642 19.3117 33.288 19.4144 33.288C19.4144 33.288 19.4144 33.288 19.415 33.288C19.4156 33.288 19.4156 33.288 19.4162 33.288C19.5159 33.2874 19.6133 33.2648 19.7077 33.2322C19.7285 33.2245 19.7487 33.2179 19.7694 33.209C19.8615 33.1692 19.947 33.1152 20.0224 33.0446C20.0265 33.0404 20.0331 33.0392 20.0366 33.0351C20.0461 33.0262 20.0491 33.0143 20.0574 33.0048C20.0889 32.9709 20.1221 32.9401 20.1489 32.9009L22.664 29.2374L24.8258 34.0729V34.0735L24.8365 34.0967C24.8793 34.1923 24.9398 34.273 25.0081 34.3443C25.0146 34.3514 25.0164 34.3603 25.0229 34.3668C25.0366 34.3799 25.0556 34.3847 25.0698 34.3977C25.1316 34.4512 25.1981 34.4951 25.2711 34.5301C25.2984 34.5426 25.324 34.5568 25.3525 34.5669C25.4469 34.6008 25.5454 34.6239 25.6476 34.6239C25.6482 34.6239 25.6488 34.6245 25.6494 34.6245C25.6499 34.6245 25.6499 34.6245 25.6499 34.6245C25.7544 34.6245 25.8601 34.602 25.9623 34.5628C25.9741 34.5586 25.9848 34.5568 25.9961 34.5521C26.002 34.5491 26.0074 34.5485 26.0127 34.5462C26.1113 34.5022 26.1956 34.4405 26.2686 34.3692C26.2728 34.3651 26.2793 34.3639 26.2829 34.3591L29.4001 31.2045C29.7456 30.8542 29.7421 30.2907 29.3923 29.9446C29.0432 29.6002 28.4803 29.602 28.1342 29.9517Z" fill="#696969"/>
</svg>
