<svg width="34" height="36" viewBox="0 0 34 36" fill="none" xmlns="http://www.w3.org/2000/svg">
<path d="M2 7H8V31.84C7.99898 32.3498 8.12791 32.8515 8.37461 33.2977C8.62132 33.7439 8.97766 34.1198 9.41 34.39C10.34 35 10.78 36 12.33 36C14.5 36 14.5 34 16.66 34C18.82 34 18.83 36 20.99 36C23.15 36 23.16 34 25.33 34C27.5 34 27.49 36 29.66 36C31.22 36 31.66 35 32.59 34.39C33.0223 34.1198 33.3787 33.7439 33.6254 33.2977C33.8721 32.8515 34.001 32.3498 34 31.84V5C34 3.67392 33.4732 2.40215 32.5355 1.46447C31.5979 0.526786 30.3261 1.93664e-06 29 1.93664e-06H5C4.66402 -0.00312672 4.32871 0.0304049 4 0.100002C2.87064 0.330532 1.8556 0.944184 1.12669 1.8371C0.397783 2.73001 -0.000235151 3.84735 1.04228e-07 5C1.04228e-07 5.53044 0.210714 6.03914 0.585786 6.41422C0.960859 6.78929 1.46957 7 2 7ZM29 2C29.7956 2 30.5587 2.31607 31.1213 2.87868C31.6839 3.44129 32 4.20435 32 5V31.84C31.9993 32.0109 31.9548 32.1787 31.8708 32.3276C31.7867 32.4764 31.666 32.6011 31.52 32.69C31.1466 32.9394 30.7953 33.2204 30.47 33.53C29.98 33.98 29.93 34 29.66 34C29.39 34 29.34 34 28.85 33.53C28.3988 33.0556 27.8559 32.6778 27.2542 32.4197C26.6526 32.1616 26.0047 32.0285 25.35 32.0285C24.6953 32.0285 24.0474 32.1616 23.4458 32.4197C22.8441 32.6778 22.3012 33.0556 21.85 33.53C21.36 33.98 21.31 34 21.04 34C20.77 34 20.73 34 20.24 33.53C19.7888 33.0556 19.2459 32.6778 18.6442 32.4197C18.0426 32.1616 17.3947 32.0285 16.74 32.0285C16.0853 32.0285 15.4374 32.1616 14.8358 32.4197C14.2341 32.6778 13.6912 33.0556 13.24 33.53C12.75 33.98 12.7 34 12.43 34C12.16 34 12.12 34 11.63 33.53C11.3068 33.2181 10.9553 32.9369 10.58 32.69C10.434 32.6011 10.3133 32.4764 10.2292 32.3276C10.1452 32.1787 10.1007 32.0109 10.1 31.84V5C10.1017 3.96271 9.87285 2.93801 9.43 2H29ZM4.22 2.1H4.43C4.61641 2.04874 4.80727 2.01525 5 2C5.79395 1.99805 6.5563 2.3109 7.12 2.87C7.53346 3.29151 7.81795 3.82232 7.94 4.4C7.97039 4.59883 7.99042 4.7991 8 5H2C1.9993 4.33968 2.21648 3.69758 2.61786 3.17326C3.01924 2.64894 3.58239 2.27168 4.22 2.1Z" fill="#696969"/>
</svg>
